<?xml version="1.0" standalone="no"?>
<!DOCTYPE svg PUBLIC "-//W3C//DTD SVG 20010904//EN"
 "http://www.w3.org/TR/2001/REC-SVG-20010904/DTD/svg10.dtd">
<svg version="1.0" xmlns="http://www.w3.org/2000/svg"
 width="1500.000000pt" height="1500.000000pt" viewBox="0 0 1500.000000 1500.000000"
 preserveAspectRatio="xMidYMid meet">
<metadata>
Created by potrace 1.14, written by Peter Selinger 2001-2017
</metadata>
<g transform="translate(0.000000,1500.000000) scale(0.100000,-0.100000)"
fill="#000000" stroke="none">
<path d="M9330 7505 l0 -1575 430 0 430 0 0 1575 0 1575 -430 0 -430 0 0
-1575z"/>
<path d="M10390 7505 l0 -1575 425 0 425 0 0 1575 0 1575 -425 0 -425 0 0
-1575z"/>
<path d="M8510 8617 c-74 -39 -82 -65 -75 -252 3 -88 10 -473 14 -855 6 -521
5 -732 -4 -843 -6 -82 -9 -167 -5 -188 14 -76 68 -109 181 -109 84 0 127 17
153 62 18 29 18 45 7 322 -13 304 -20 1273 -11 1601 5 183 4 191 -17 226 -29
46 -59 59 -137 59 -46 0 -74 -6 -106 -23z"/>
<path d="M3135 8624 c-11 -2 -137 -8 -280 -12 -193 -6 -266 -12 -282 -22 -45
-29 -48 -50 -43 -269 8 -328 5 -1648 -3 -1741 -8 -76 -6 -88 12 -117 31 -50
133 -75 221 -54 21 5 71 3 125 -5 145 -21 386 -28 542 -15 386 31 585 154 669
415 36 109 46 321 19 412 -43 149 -143 280 -258 338 -31 15 -57 32 -57 35 0 4
11 18 25 31 43 40 106 146 132 222 22 63 25 89 25 188 -3 354 -187 547 -562
590 -81 9 -243 11 -285 4z m320 -318 c123 -34 184 -103 206 -229 14 -85 1
-194 -31 -256 -42 -83 -137 -131 -300 -151 -92 -11 -346 -12 -425 -2 l-50 7 0
322 0 322 60 4 c33 2 155 3 270 2 160 -2 224 -6 270 -19z m85 -922 c113 -26
196 -89 247 -187 25 -47 28 -62 27 -157 0 -123 -11 -156 -78 -228 -96 -103
-216 -134 -506 -134 -184 0 -356 14 -373 31 -4 4 -6 158 -5 342 l3 334 215 5
c118 3 258 7 310 8 58 1 121 -4 160 -14z"/>
<path d="M5235 8624 c-11 -2 -137 -8 -280 -12 -170 -6 -268 -13 -282 -20 -54
-29 -52 -3 -41 -865 9 -633 8 -834 -2 -974 -16 -219 -15 -259 5 -289 34 -52
95 -64 255 -53 14 1 93 -6 175 -16 242 -28 572 -10 745 41 156 46 285 149 345
276 55 116 69 185 70 338 0 117 -3 144 -24 203 -47 137 -144 250 -263 308
l-47 22 45 51 c54 62 108 164 129 242 19 73 19 218 0 309 -46 220 -187 357
-425 415 -81 19 -353 36 -405 24z m306 -314 c80 -19 148 -68 183 -130 26 -47
31 -66 34 -149 10 -214 -51 -300 -245 -348 -53 -13 -117 -17 -298 -17 -126 -1
-238 2 -247 6 -17 7 -18 32 -18 327 l0 320 63 4 c116 8 482 -1 528 -13z m81
-921 c120 -25 225 -106 271 -207 31 -69 30 -216 -2 -289 -43 -98 -145 -168
-293 -200 -91 -19 -408 -21 -550 -3 l-98 12 0 344 0 344 213 3 c116 1 256 3
309 5 53 1 121 -3 150 -9z"/>
<path d="M6564 8586 c-53 -23 -74 -60 -74 -130 0 -73 22 -121 70 -153 32 -22
41 -23 266 -23 l234 0 0 -895 c0 -993 -3 -953 65 -995 45 -28 157 -28 202 0
69 41 65 -16 63 986 l-1 904 248 0 c231 0 250 1 281 20 67 41 94 164 49 231
-48 72 -18 69 -732 69 -513 -1 -646 -3 -671 -14z"/>
</g>
</svg>
